<mxfile host="app.diagrams.net" modified="2021-12-07T18:44:38.333Z" agent="5.0 (Windows NT 10.0; Win64; x64) AppleWebKit/537.36 (KHTML, like Gecko) Chrome/96.0.4664.45 Safari/537.36" etag="F8SpQwpTVGE121pYm_4H" version="15.8.9" type="github">
  <diagram id="ovqH3nYszI52S20i6RJt" name="Page-1">
    <mxGraphModel dx="4062" dy="1427" grid="1" gridSize="10" guides="1" tooltips="1" connect="1" arrows="1" fold="1" page="1" pageScale="1" pageWidth="1169" pageHeight="827" math="0" shadow="0">
      <root>
        <mxCell id="0" />
        <mxCell id="1" parent="0" />
        <mxCell id="VaxN0NaM_cXc8g0WYVNY-4" style="edgeStyle=orthogonalEdgeStyle;rounded=0;orthogonalLoop=1;jettySize=auto;html=1;entryX=0.5;entryY=0;entryDx=0;entryDy=0;" edge="1" parent="1" source="VaxN0NaM_cXc8g0WYVNY-1" target="VaxN0NaM_cXc8g0WYVNY-2">
          <mxGeometry relative="1" as="geometry">
            <Array as="points">
              <mxPoint x="420" y="110" />
              <mxPoint x="-220" y="110" />
            </Array>
          </mxGeometry>
        </mxCell>
        <mxCell id="VaxN0NaM_cXc8g0WYVNY-10" style="edgeStyle=orthogonalEdgeStyle;rounded=0;orthogonalLoop=1;jettySize=auto;html=1;entryX=0.5;entryY=0;entryDx=0;entryDy=0;" edge="1" parent="1" source="VaxN0NaM_cXc8g0WYVNY-1" target="VaxN0NaM_cXc8g0WYVNY-7">
          <mxGeometry relative="1" as="geometry">
            <Array as="points">
              <mxPoint x="420" y="110" />
              <mxPoint x="210" y="110" />
            </Array>
          </mxGeometry>
        </mxCell>
        <mxCell id="VaxN0NaM_cXc8g0WYVNY-11" style="edgeStyle=orthogonalEdgeStyle;rounded=0;orthogonalLoop=1;jettySize=auto;html=1;entryX=0.5;entryY=0;entryDx=0;entryDy=0;" edge="1" parent="1" source="VaxN0NaM_cXc8g0WYVNY-1" target="VaxN0NaM_cXc8g0WYVNY-8">
          <mxGeometry relative="1" as="geometry">
            <Array as="points">
              <mxPoint x="420" y="110" />
              <mxPoint x="690" y="110" />
            </Array>
          </mxGeometry>
        </mxCell>
        <mxCell id="VaxN0NaM_cXc8g0WYVNY-45" style="edgeStyle=orthogonalEdgeStyle;rounded=0;orthogonalLoop=1;jettySize=auto;html=1;" edge="1" parent="1" source="VaxN0NaM_cXc8g0WYVNY-1" target="VaxN0NaM_cXc8g0WYVNY-44">
          <mxGeometry relative="1" as="geometry">
            <Array as="points">
              <mxPoint x="420" y="110" />
              <mxPoint x="1150" y="110" />
            </Array>
          </mxGeometry>
        </mxCell>
        <mxCell id="VaxN0NaM_cXc8g0WYVNY-1" value="Mulai" style="rounded=0;whiteSpace=wrap;html=1;" vertex="1" parent="1">
          <mxGeometry x="360" y="30" width="120" height="40" as="geometry" />
        </mxCell>
        <mxCell id="VaxN0NaM_cXc8g0WYVNY-35" style="edgeStyle=orthogonalEdgeStyle;rounded=0;orthogonalLoop=1;jettySize=auto;html=1;" edge="1" parent="1" source="VaxN0NaM_cXc8g0WYVNY-2" target="VaxN0NaM_cXc8g0WYVNY-34">
          <mxGeometry relative="1" as="geometry">
            <Array as="points">
              <mxPoint x="-220" y="520" />
              <mxPoint x="420" y="520" />
            </Array>
          </mxGeometry>
        </mxCell>
        <mxCell id="VaxN0NaM_cXc8g0WYVNY-2" value="Pembuatan Pati Ubi Jalar" style="rounded=0;whiteSpace=wrap;html=1;" vertex="1" parent="1">
          <mxGeometry x="-310" y="160" width="180" height="40" as="geometry" />
        </mxCell>
        <mxCell id="VaxN0NaM_cXc8g0WYVNY-6" value="Selesai" style="rounded=1;whiteSpace=wrap;html=1;" vertex="1" parent="1">
          <mxGeometry x="360" y="1120" width="120" height="60" as="geometry" />
        </mxCell>
        <mxCell id="VaxN0NaM_cXc8g0WYVNY-37" style="edgeStyle=orthogonalEdgeStyle;rounded=0;orthogonalLoop=1;jettySize=auto;html=1;entryX=0.5;entryY=0;entryDx=0;entryDy=0;" edge="1" parent="1" source="VaxN0NaM_cXc8g0WYVNY-7" target="VaxN0NaM_cXc8g0WYVNY-34">
          <mxGeometry relative="1" as="geometry">
            <Array as="points">
              <mxPoint x="210" y="520" />
              <mxPoint x="420" y="520" />
            </Array>
          </mxGeometry>
        </mxCell>
        <mxCell id="VaxN0NaM_cXc8g0WYVNY-7" value="Pembuatan Ekstrak Daun Kenikir" style="rounded=0;whiteSpace=wrap;html=1;" vertex="1" parent="1">
          <mxGeometry x="105" y="160" width="210" height="40" as="geometry" />
        </mxCell>
        <mxCell id="VaxN0NaM_cXc8g0WYVNY-42" style="edgeStyle=orthogonalEdgeStyle;rounded=0;orthogonalLoop=1;jettySize=auto;html=1;entryX=0.5;entryY=0;entryDx=0;entryDy=0;" edge="1" parent="1" source="VaxN0NaM_cXc8g0WYVNY-8" target="VaxN0NaM_cXc8g0WYVNY-34">
          <mxGeometry relative="1" as="geometry">
            <Array as="points">
              <mxPoint x="690" y="520" />
              <mxPoint x="420" y="520" />
            </Array>
          </mxGeometry>
        </mxCell>
        <mxCell id="VaxN0NaM_cXc8g0WYVNY-8" value="Pembuatan Ekstrak daun sirin cina" style="rounded=0;whiteSpace=wrap;html=1;" vertex="1" parent="1">
          <mxGeometry x="560" y="160" width="260" height="40" as="geometry" />
        </mxCell>
        <mxCell id="VaxN0NaM_cXc8g0WYVNY-33" value="&lt;b style=&quot;font-weight: normal&quot; id=&quot;docs-internal-guid-5ed4e104-7fff-7965-fbf4-760d567ad87a&quot;&gt;&lt;ol style=&quot;margin-top: 0 ; margin-bottom: 0&quot;&gt;&lt;li dir=&quot;ltr&quot; style=&quot;list-style-type: decimal; font-size: 11pt; font-family: arial; color: rgb(0, 0, 0); background-color: transparent; font-weight: 400; font-style: normal; font-variant: normal; text-decoration: none; vertical-align: baseline;&quot;&gt;&lt;p dir=&quot;ltr&quot; style=&quot;line-height: 1.38 ; margin-top: 0pt ; margin-bottom: 0pt&quot;&gt;&lt;span style=&quot;font-size: 11pt; font-family: arial; color: rgb(0, 0, 0); background-color: transparent; font-weight: 400; font-style: normal; font-variant: normal; text-decoration: none; vertical-align: baseline;&quot;&gt;kupas ubi jalar.&lt;/span&gt;&lt;/p&gt;&lt;/li&gt;&lt;li dir=&quot;ltr&quot; style=&quot;list-style-type: decimal; font-size: 11pt; font-family: arial; color: rgb(0, 0, 0); background-color: transparent; font-weight: 400; font-style: normal; font-variant: normal; text-decoration: none; vertical-align: baseline;&quot;&gt;&lt;p dir=&quot;ltr&quot; style=&quot;line-height: 1.38 ; margin-top: 0pt ; margin-bottom: 0pt&quot;&gt;&lt;span style=&quot;font-size: 11pt; font-family: arial; color: rgb(0, 0, 0); background-color: transparent; font-weight: 400; font-style: normal; font-variant: normal; text-decoration: none; vertical-align: baseline;&quot;&gt;lalu cuci bersih pada air yang mengalir.&lt;/span&gt;&lt;/p&gt;&lt;/li&gt;&lt;li dir=&quot;ltr&quot; style=&quot;list-style-type: decimal; font-size: 11pt; font-family: arial; color: rgb(0, 0, 0); background-color: transparent; font-weight: 400; font-style: normal; font-variant: normal; text-decoration: none; vertical-align: baseline;&quot;&gt;&lt;p dir=&quot;ltr&quot; style=&quot;line-height: 1.38 ; margin-top: 0pt ; margin-bottom: 0pt&quot;&gt;&lt;span style=&quot;font-size: 11pt; font-family: arial; color: rgb(0, 0, 0); background-color: transparent; font-weight: 400; font-style: normal; font-variant: normal; text-decoration: none; vertical-align: baseline;&quot;&gt;parut ubi jalar.&lt;/span&gt;&lt;/p&gt;&lt;/li&gt;&lt;li dir=&quot;ltr&quot; style=&quot;list-style-type: decimal; font-size: 11pt; font-family: arial; color: rgb(0, 0, 0); background-color: transparent; font-weight: 400; font-style: normal; font-variant: normal; text-decoration: none; vertical-align: baseline;&quot;&gt;&lt;p dir=&quot;ltr&quot; style=&quot;line-height: 1.38 ; margin-top: 0pt ; margin-bottom: 0pt&quot;&gt;&lt;span style=&quot;font-size: 11pt; font-family: arial; color: rgb(0, 0, 0); background-color: transparent; font-weight: 400; font-style: normal; font-variant: normal; text-decoration: none; vertical-align: baseline;&quot;&gt;tambahkan sedikit aquades.&lt;/span&gt;&lt;/p&gt;&lt;/li&gt;&lt;li dir=&quot;ltr&quot; style=&quot;list-style-type: decimal; font-size: 11pt; font-family: arial; color: rgb(0, 0, 0); background-color: transparent; font-weight: 400; font-style: normal; font-variant: normal; text-decoration: none; vertical-align: baseline;&quot;&gt;&lt;p dir=&quot;ltr&quot; style=&quot;line-height: 1.38 ; margin-top: 0pt ; margin-bottom: 0pt&quot;&gt;&lt;span style=&quot;font-size: 11pt; font-family: arial; color: rgb(0, 0, 0); background-color: transparent; font-weight: 400; font-style: normal; font-variant: normal; text-decoration: none; vertical-align: baseline;&quot;&gt;setelah itu siapkan kasa steril.&lt;/span&gt;&lt;/p&gt;&lt;/li&gt;&lt;li dir=&quot;ltr&quot; style=&quot;list-style-type: decimal; font-size: 11pt; font-family: arial; color: rgb(0, 0, 0); background-color: transparent; font-weight: 400; font-style: normal; font-variant: normal; text-decoration: none; vertical-align: baseline;&quot;&gt;&lt;p dir=&quot;ltr&quot; style=&quot;line-height: 1.38 ; margin-top: 0pt ; margin-bottom: 0pt&quot;&gt;&lt;span style=&quot;font-size: 11pt; font-family: arial; color: rgb(0, 0, 0); background-color: transparent; font-weight: 400; font-style: normal; font-variant: normal; text-decoration: none; vertical-align: baseline;&quot;&gt;teras ubi jalar dengan kasa steril.&lt;/span&gt;&lt;/p&gt;&lt;/li&gt;&lt;li dir=&quot;ltr&quot; style=&quot;list-style-type: decimal; font-size: 11pt; font-family: arial; color: rgb(0, 0, 0); background-color: transparent; font-weight: 400; font-style: normal; font-variant: normal; text-decoration: none; vertical-align: baseline;&quot;&gt;&lt;p dir=&quot;ltr&quot; style=&quot;line-height: 1.38 ; margin-top: 0pt ; margin-bottom: 0pt&quot;&gt;&lt;span style=&quot;font-size: 11pt; font-family: arial; color: rgb(0, 0, 0); background-color: transparent; font-weight: 400; font-style: normal; font-variant: normal; text-decoration: none; vertical-align: baseline;&quot;&gt;masukkan kedalam beaker glass.&lt;/span&gt;&lt;/p&gt;&lt;/li&gt;&lt;li dir=&quot;ltr&quot; style=&quot;list-style-type: decimal; font-size: 11pt; font-family: arial; color: rgb(0, 0, 0); background-color: transparent; font-weight: 400; font-style: normal; font-variant: normal; text-decoration: none; vertical-align: baseline;&quot;&gt;&lt;p dir=&quot;ltr&quot; style=&quot;line-height: 1.38 ; margin-top: 0pt ; margin-bottom: 0pt&quot;&gt;&lt;span style=&quot;font-size: 11pt; font-family: arial; color: rgb(0, 0, 0); background-color: transparent; font-weight: 400; font-style: normal; font-variant: normal; text-decoration: none; vertical-align: baseline;&quot;&gt;lalu tutup dengan alumunium foil.&lt;/span&gt;&lt;/p&gt;&lt;/li&gt;&lt;li dir=&quot;ltr&quot; style=&quot;list-style-type: decimal; font-size: 11pt; font-family: arial; color: rgb(0, 0, 0); background-color: transparent; font-weight: 400; font-style: normal; font-variant: normal; text-decoration: none; vertical-align: baseline;&quot;&gt;&lt;p dir=&quot;ltr&quot; style=&quot;line-height: 1.38 ; margin-top: 0pt ; margin-bottom: 0pt&quot;&gt;&lt;span style=&quot;font-size: 11pt; font-family: arial; color: rgb(0, 0, 0); background-color: transparent; font-weight: 400; font-style: normal; font-variant: normal; text-decoration: none; vertical-align: baseline;&quot;&gt;tunggu hingga Pati mengendap.&amp;nbsp;&lt;/span&gt;&lt;/p&gt;&lt;/li&gt;&lt;li dir=&quot;ltr&quot; style=&quot;list-style-type: decimal; font-size: 11pt; font-family: arial; color: rgb(0, 0, 0); background-color: transparent; font-weight: 400; font-style: normal; font-variant: normal; text-decoration: none; vertical-align: baseline;&quot;&gt;&lt;p dir=&quot;ltr&quot; style=&quot;line-height: 1.38 ; margin-top: 0pt ; margin-bottom: 0pt&quot;&gt;&lt;span style=&quot;font-size: 11pt; font-family: arial; color: rgb(0, 0, 0); background-color: transparent; font-weight: 400; font-style: normal; font-variant: normal; text-decoration: none; vertical-align: baseline;&quot;&gt;setelah Pati mengendap ambil Pati sangrai diatas teflon anti lengket.&amp;nbsp;&lt;/span&gt;&lt;/p&gt;&lt;/li&gt;&lt;li dir=&quot;ltr&quot; style=&quot;list-style-type: decimal; font-size: 11pt; font-family: arial; color: rgb(0, 0, 0); background-color: transparent; font-weight: 400; font-style: normal; font-variant: normal; text-decoration: none; vertical-align: baseline;&quot;&gt;&lt;p dir=&quot;ltr&quot; style=&quot;line-height: 1.38 ; margin-top: 0pt ; margin-bottom: 0pt&quot;&gt;&lt;span style=&quot;font-size: 11pt; font-family: arial; color: rgb(0, 0, 0); background-color: transparent; font-weight: 400; font-style: normal; font-variant: normal; text-decoration: none; vertical-align: baseline;&quot;&gt;lalu tambahkan daun pandan untuk memberi aroma&lt;/span&gt;&lt;/p&gt;&lt;/li&gt;&lt;/ol&gt;&lt;/b&gt;" style="text;whiteSpace=wrap;html=1;" vertex="1" parent="1">
          <mxGeometry x="-220" y="230" width="350" height="240" as="geometry" />
        </mxCell>
        <mxCell id="VaxN0NaM_cXc8g0WYVNY-39" value="" style="edgeStyle=orthogonalEdgeStyle;rounded=0;orthogonalLoop=1;jettySize=auto;html=1;" edge="1" parent="1" source="VaxN0NaM_cXc8g0WYVNY-34" target="VaxN0NaM_cXc8g0WYVNY-38">
          <mxGeometry relative="1" as="geometry" />
        </mxCell>
        <mxCell id="VaxN0NaM_cXc8g0WYVNY-34" value="Tekan dan siapkan alat dan bahan" style="rounded=0;whiteSpace=wrap;html=1;" vertex="1" parent="1">
          <mxGeometry x="315" y="560" width="210" height="60" as="geometry" />
        </mxCell>
        <mxCell id="VaxN0NaM_cXc8g0WYVNY-36" value="&lt;b style=&quot;font-weight: normal&quot; id=&quot;docs-internal-guid-0d5df72b-7fff-95d5-193e-8f352775c490&quot;&gt;&lt;ol style=&quot;margin-top: 0 ; margin-bottom: 0&quot;&gt;&lt;li dir=&quot;ltr&quot; style=&quot;list-style-type: decimal; font-size: 11pt; font-family: arial; color: rgb(0, 0, 0); background-color: transparent; font-weight: 400; font-style: normal; font-variant: normal; text-decoration: none; vertical-align: baseline;&quot;&gt;&lt;p dir=&quot;ltr&quot; style=&quot;line-height: 1.38 ; margin-top: 0pt ; margin-bottom: 0pt&quot;&gt;&lt;span style=&quot;font-size: 11pt; font-family: arial; color: rgb(0, 0, 0); background-color: transparent; font-weight: 400; font-style: normal; font-variant: normal; text-decoration: none; vertical-align: baseline;&quot;&gt;cuci bersih daun kenikir&amp;nbsp;&lt;/span&gt;&lt;/p&gt;&lt;/li&gt;&lt;li dir=&quot;ltr&quot; style=&quot;list-style-type: decimal; font-size: 11pt; font-family: arial; color: rgb(0, 0, 0); background-color: transparent; font-weight: 400; font-style: normal; font-variant: normal; text-decoration: none; vertical-align: baseline;&quot;&gt;&lt;p dir=&quot;ltr&quot; style=&quot;line-height: 1.38 ; margin-top: 0pt ; margin-bottom: 0pt&quot;&gt;&lt;span style=&quot;font-size: 11pt; font-family: arial; color: rgb(0, 0, 0); background-color: transparent; font-weight: 400; font-style: normal; font-variant: normal; text-decoration: none; vertical-align: baseline;&quot;&gt;lalu masukkan ke dalam blender&amp;nbsp;&lt;/span&gt;&lt;/p&gt;&lt;/li&gt;&lt;li dir=&quot;ltr&quot; style=&quot;list-style-type: decimal; font-size: 11pt; font-family: arial; color: rgb(0, 0, 0); background-color: transparent; font-weight: 400; font-style: normal; font-variant: normal; text-decoration: none; vertical-align: baseline;&quot;&gt;&lt;p dir=&quot;ltr&quot; style=&quot;line-height: 1.38 ; margin-top: 0pt ; margin-bottom: 0pt&quot;&gt;&lt;span style=&quot;font-size: 11pt; font-family: arial; color: rgb(0, 0, 0); background-color: transparent; font-weight: 400; font-style: normal; font-variant: normal; text-decoration: none; vertical-align: baseline;&quot;&gt;Tambahkan air 1 banding 6 setelah di blender&amp;nbsp;&lt;/span&gt;&lt;/p&gt;&lt;/li&gt;&lt;li dir=&quot;ltr&quot; style=&quot;list-style-type: decimal; font-size: 11pt; font-family: arial; color: rgb(0, 0, 0); background-color: transparent; font-weight: 400; font-style: normal; font-variant: normal; text-decoration: none; vertical-align: baseline;&quot;&gt;&lt;p dir=&quot;ltr&quot; style=&quot;line-height: 1.38 ; margin-top: 0pt ; margin-bottom: 0pt&quot;&gt;&lt;span style=&quot;font-size: 11pt; font-family: arial; color: rgb(0, 0, 0); background-color: transparent; font-weight: 400; font-style: normal; font-variant: normal; text-decoration: none; vertical-align: baseline;&quot;&gt;saring dengan kosa steril &lt;/span&gt;&lt;/p&gt;&lt;/li&gt;&lt;/ol&gt;&lt;/b&gt;" style="text;whiteSpace=wrap;html=1;" vertex="1" parent="1">
          <mxGeometry x="210" y="220" width="360" height="100" as="geometry" />
        </mxCell>
        <mxCell id="VaxN0NaM_cXc8g0WYVNY-41" value="" style="edgeStyle=orthogonalEdgeStyle;rounded=0;orthogonalLoop=1;jettySize=auto;html=1;" edge="1" parent="1" source="VaxN0NaM_cXc8g0WYVNY-38" target="VaxN0NaM_cXc8g0WYVNY-40">
          <mxGeometry relative="1" as="geometry" />
        </mxCell>
        <mxCell id="VaxN0NaM_cXc8g0WYVNY-38" value="Timbang semya bahan" style="rounded=0;whiteSpace=wrap;html=1;" vertex="1" parent="1">
          <mxGeometry x="320" y="660" width="200" height="60" as="geometry" />
        </mxCell>
        <mxCell id="VaxN0NaM_cXc8g0WYVNY-49" value="" style="edgeStyle=orthogonalEdgeStyle;rounded=0;orthogonalLoop=1;jettySize=auto;html=1;" edge="1" parent="1" source="VaxN0NaM_cXc8g0WYVNY-40" target="VaxN0NaM_cXc8g0WYVNY-48">
          <mxGeometry relative="1" as="geometry" />
        </mxCell>
        <mxCell id="VaxN0NaM_cXc8g0WYVNY-40" value="Sangrai bahan pada kompor dipanaskan" style="rounded=0;whiteSpace=wrap;html=1;" vertex="1" parent="1">
          <mxGeometry x="250" y="760" width="340" height="60" as="geometry" />
        </mxCell>
        <mxCell id="VaxN0NaM_cXc8g0WYVNY-43" value="&lt;b style=&quot;font-weight: normal&quot; id=&quot;docs-internal-guid-c2dedafd-7fff-107c-5047-153d0fb30214&quot;&gt;&lt;ol style=&quot;margin-top: 0 ; margin-bottom: 0&quot;&gt;&lt;li dir=&quot;ltr&quot; style=&quot;list-style-type: decimal; font-size: 11pt; font-family: arial; color: rgb(0, 0, 0); background-color: transparent; font-weight: 400; font-style: normal; font-variant: normal; text-decoration: none; vertical-align: baseline;&quot;&gt;&lt;p dir=&quot;ltr&quot; style=&quot;line-height: 1.38 ; margin-top: 0pt ; margin-bottom: 0pt&quot;&gt;&lt;span style=&quot;font-size: 11pt; font-family: arial; color: rgb(0, 0, 0); background-color: transparent; font-weight: 400; font-style: normal; font-variant: normal; text-decoration: none; vertical-align: baseline;&quot;&gt;cuci bersih daun sirih Cina&amp;nbsp;&lt;/span&gt;&lt;/p&gt;&lt;/li&gt;&lt;li dir=&quot;ltr&quot; style=&quot;list-style-type: decimal; font-size: 11pt; font-family: arial; color: rgb(0, 0, 0); background-color: transparent; font-weight: 400; font-style: normal; font-variant: normal; text-decoration: none; vertical-align: baseline;&quot;&gt;&lt;p dir=&quot;ltr&quot; style=&quot;line-height: 1.38 ; margin-top: 0pt ; margin-bottom: 0pt&quot;&gt;&lt;span style=&quot;font-size: 11pt; font-family: arial; color: rgb(0, 0, 0); background-color: transparent; font-weight: 400; font-style: normal; font-variant: normal; text-decoration: none; vertical-align: baseline;&quot;&gt;blender hingga halus&amp;nbsp;&lt;/span&gt;&lt;/p&gt;&lt;/li&gt;&lt;li dir=&quot;ltr&quot; style=&quot;list-style-type: decimal; font-size: 11pt; font-family: arial; color: rgb(0, 0, 0); background-color: transparent; font-weight: 400; font-style: normal; font-variant: normal; text-decoration: none; vertical-align: baseline;&quot;&gt;&lt;p dir=&quot;ltr&quot; style=&quot;line-height: 1.38 ; margin-top: 0pt ; margin-bottom: 0pt&quot;&gt;&lt;span style=&quot;font-size: 11pt; font-family: arial; color: rgb(0, 0, 0); background-color: transparent; font-weight: 400; font-style: normal; font-variant: normal; text-decoration: none; vertical-align: baseline;&quot;&gt;tambahkan alkohol 70 persen 1 banding 3&amp;nbsp;&lt;/span&gt;&lt;/p&gt;&lt;/li&gt;&lt;li dir=&quot;ltr&quot; style=&quot;list-style-type: decimal; font-size: 11pt; font-family: arial; color: rgb(0, 0, 0); background-color: transparent; font-weight: 400; font-style: normal; font-variant: normal; text-decoration: none; vertical-align: baseline;&quot;&gt;&lt;p dir=&quot;ltr&quot; style=&quot;line-height: 1.38 ; margin-top: 0pt ; margin-bottom: 0pt&quot;&gt;&lt;span style=&quot;font-size: 11pt; font-family: arial; color: rgb(0, 0, 0); background-color: transparent; font-weight: 400; font-style: normal; font-variant: normal; text-decoration: none; vertical-align: baseline;&quot;&gt;masukkan ke dalam wadah&amp;nbsp;&lt;/span&gt;&lt;/p&gt;&lt;/li&gt;&lt;li dir=&quot;ltr&quot; style=&quot;list-style-type: decimal; font-size: 11pt; font-family: arial; color: rgb(0, 0, 0); background-color: transparent; font-weight: 400; font-style: normal; font-variant: normal; text-decoration: none; vertical-align: baseline;&quot;&gt;&lt;p dir=&quot;ltr&quot; style=&quot;line-height: 1.38 ; margin-top: 0pt ; margin-bottom: 0pt&quot;&gt;&lt;span style=&quot;font-size: 11pt; font-family: arial; color: rgb(0, 0, 0); background-color: transparent; font-weight: 400; font-style: normal; font-variant: normal; text-decoration: none; vertical-align: baseline;&quot;&gt;tunggu hingga Hai&amp;nbsp;&lt;/span&gt;&lt;/p&gt;&lt;/li&gt;&lt;li dir=&quot;ltr&quot; style=&quot;list-style-type: decimal; font-size: 11pt; font-family: arial; color: rgb(0, 0, 0); background-color: transparent; font-weight: 400; font-style: normal; font-variant: normal; text-decoration: none; vertical-align: baseline;&quot;&gt;&lt;p dir=&quot;ltr&quot; style=&quot;line-height: 1.38 ; margin-top: 0pt ; margin-bottom: 0pt&quot;&gt;&lt;span style=&quot;font-size: 11pt; font-family: arial; color: rgb(0, 0, 0); background-color: transparent; font-weight: 400; font-style: normal; font-variant: normal; text-decoration: none; vertical-align: baseline;&quot;&gt;sharing daun sirih Cina menggunakan kasa steril&lt;/span&gt;&lt;/p&gt;&lt;/li&gt;&lt;li dir=&quot;ltr&quot; style=&quot;list-style-type: decimal; font-size: 11pt; font-family: arial; color: rgb(0, 0, 0); background-color: transparent; font-weight: 400; font-style: normal; font-variant: normal; text-decoration: none; vertical-align: baseline;&quot;&gt;&lt;p dir=&quot;ltr&quot; style=&quot;line-height: 1.38 ; margin-top: 0pt ; margin-bottom: 0pt&quot;&gt;&lt;span style=&quot;font-size: 11pt; font-family: arial; color: rgb(0, 0, 0); background-color: transparent; font-weight: 400; font-style: normal; font-variant: normal; text-decoration: none; vertical-align: baseline;&quot;&gt;setelah itu Panaskan ekstrak daun sirih Cina hingga mengental &lt;/span&gt;&lt;/p&gt;&lt;/li&gt;&lt;/ol&gt;&lt;/b&gt;" style="text;whiteSpace=wrap;html=1;" vertex="1" parent="1">
          <mxGeometry x="680" y="210" width="340" height="160" as="geometry" />
        </mxCell>
        <mxCell id="VaxN0NaM_cXc8g0WYVNY-46" style="edgeStyle=orthogonalEdgeStyle;rounded=0;orthogonalLoop=1;jettySize=auto;html=1;entryX=0.5;entryY=0;entryDx=0;entryDy=0;" edge="1" parent="1" source="VaxN0NaM_cXc8g0WYVNY-44" target="VaxN0NaM_cXc8g0WYVNY-34">
          <mxGeometry relative="1" as="geometry">
            <Array as="points">
              <mxPoint x="1150" y="520" />
              <mxPoint x="420" y="520" />
            </Array>
          </mxGeometry>
        </mxCell>
        <mxCell id="VaxN0NaM_cXc8g0WYVNY-44" value="Pembuatan Scrub biji salak" style="rounded=0;whiteSpace=wrap;html=1;" vertex="1" parent="1">
          <mxGeometry x="1030" y="160" width="240" height="40" as="geometry" />
        </mxCell>
        <mxCell id="VaxN0NaM_cXc8g0WYVNY-47" value="&lt;ol&gt;&lt;li&gt;&lt;b style=&quot;font-weight: normal&quot; id=&quot;docs-internal-guid-b6667f16-7fff-337e-ba64-49d40d39102c&quot;&gt;&lt;span style=&quot;background-color: transparent ; font-family: &amp;#34;arial&amp;#34; ; font-size: 11pt&quot;&gt;haluskan biji salak menggunakan blender hingga halus.&lt;/span&gt;&lt;/b&gt;&lt;/li&gt;&lt;li&gt;&lt;b style=&quot;font-weight: normal&quot; id=&quot;docs-internal-guid-b6667f16-7fff-337e-ba64-49d40d39102c&quot;&gt;&lt;span style=&quot;background-color: transparent ; font-family: &amp;#34;arial&amp;#34; ; font-size: 11pt&quot;&gt;lalu sangrai biji salak menggunakan Daun pandan untuk memberi aroma.&lt;/span&gt;&lt;/b&gt;&lt;/li&gt;&lt;/ol&gt;" style="text;whiteSpace=wrap;html=1;" vertex="1" parent="1">
          <mxGeometry x="1150" y="200" width="300" height="60" as="geometry" />
        </mxCell>
        <mxCell id="VaxN0NaM_cXc8g0WYVNY-52" value="" style="edgeStyle=orthogonalEdgeStyle;rounded=0;orthogonalLoop=1;jettySize=auto;html=1;" edge="1" parent="1" source="VaxN0NaM_cXc8g0WYVNY-48" target="VaxN0NaM_cXc8g0WYVNY-50">
          <mxGeometry relative="1" as="geometry" />
        </mxCell>
        <mxCell id="VaxN0NaM_cXc8g0WYVNY-48" value="Teteskan vanila oil" style="rounded=0;whiteSpace=wrap;html=1;" vertex="1" parent="1">
          <mxGeometry x="305" y="860" width="230" height="40" as="geometry" />
        </mxCell>
        <mxCell id="VaxN0NaM_cXc8g0WYVNY-53" value="" style="edgeStyle=orthogonalEdgeStyle;rounded=0;orthogonalLoop=1;jettySize=auto;html=1;" edge="1" parent="1" source="VaxN0NaM_cXc8g0WYVNY-50" target="VaxN0NaM_cXc8g0WYVNY-51">
          <mxGeometry relative="1" as="geometry" />
        </mxCell>
        <mxCell id="VaxN0NaM_cXc8g0WYVNY-50" value="buat bentuk ball" style="rounded=0;whiteSpace=wrap;html=1;" vertex="1" parent="1">
          <mxGeometry x="360" y="940" width="120" height="60" as="geometry" />
        </mxCell>
        <mxCell id="VaxN0NaM_cXc8g0WYVNY-54" value="" style="edgeStyle=orthogonalEdgeStyle;rounded=0;orthogonalLoop=1;jettySize=auto;html=1;" edge="1" parent="1" source="VaxN0NaM_cXc8g0WYVNY-51" target="VaxN0NaM_cXc8g0WYVNY-6">
          <mxGeometry relative="1" as="geometry" />
        </mxCell>
        <mxCell id="VaxN0NaM_cXc8g0WYVNY-51" value="Masukan dalam kemasan" style="rounded=0;whiteSpace=wrap;html=1;" vertex="1" parent="1">
          <mxGeometry x="315" y="1030" width="210" height="60" as="geometry" />
        </mxCell>
      </root>
    </mxGraphModel>
  </diagram>
</mxfile>
